<svg xmlns="http://www.w3.org/2000/svg" xmlns:xlink="http://www.w3.org/1999/xlink" width="511.191" height="519.738" viewBox="0 0 511.191 519.738">
  <defs>
    <clipPath id="clip-path">
      <rect id="Rectangle_52" data-name="Rectangle 52" width="511.191" height="519.738" fill="none"/>
    </clipPath>
    <clipPath id="clip-path-3">
      <rect id="Rectangle_41" data-name="Rectangle 41" width="54.013" height="153.469" transform="translate(23.6 215.345)" fill="none"/>
    </clipPath>
    <clipPath id="clip-path-8">
      <rect id="Rectangle_47" data-name="Rectangle 47" width="42.968" height="13.671" transform="translate(452.828 481.697)" fill="none"/>
    </clipPath>
    <clipPath id="clip-path-9">
      <rect id="Rectangle_48" data-name="Rectangle 48" width="4.494" height="4.385" transform="translate(444.233 481.168)" fill="none"/>
    </clipPath>
    <clipPath id="clip-path-10">
      <rect id="Rectangle_49" data-name="Rectangle 49" width="19.311" height="40.634" transform="translate(317.286 477.276)" fill="none"/>
    </clipPath>
    <clipPath id="clip-path-11">
      <rect id="Rectangle_50" data-name="Rectangle 50" width="4.464" height="4.491" transform="translate(346.568 477.146)" fill="none"/>
    </clipPath>
  </defs>
  <g id="Group_87" data-name="Group 87" transform="translate(525 -1353)">
    <g id="Group_86" data-name="Group 86" transform="translate(-525 1353)">
      <g id="Group_85" data-name="Group 85" clip-path="url(#clip-path)">
        <g id="Group_64" data-name="Group 64">
          <g id="Group_63" data-name="Group 63" clip-path="url(#clip-path)">
            <path id="Path_257" data-name="Path 257" d="M511.191,482.192c0,.165-114.156.307-254.953.307s-254.976-.142-254.976-.307,114.132-.307,254.976-.307,254.953.13,254.953.307" fill="#263238"/>
            <path id="Path_258" data-name="Path 258" d="M337.21.059H303.378a8.417,8.417,0,0,0-8.252,8.578c0,.013,0,.026,0,.039v6.165a8.419,8.419,0,0,1-8.213,8.617H220.861a8.429,8.429,0,0,1-8.252-8.6V8.629A8.428,8.428,0,0,0,204.386,0H163.029a26.665,26.665,0,0,0-26.641,26.688v.036L136.3,455.362A26.689,26.689,0,0,0,162.923,482.1L337.1,482.2a26.665,26.665,0,0,0,26.641-26.688v-.036l.083-428.65A26.677,26.677,0,0,0,337.246.059h-.036" fill="#fff"/>
            <path id="Path_259" data-name="Path 259" d="M337.21.321h.919a20.161,20.161,0,0,1,2.7.212A25.131,25.131,0,0,1,350.837,4.07a25.892,25.892,0,0,1,6.071,4.951,26.626,26.626,0,0,1,5.045,7.992,27.648,27.648,0,0,1,1.981,10.833V40.424c0,35.565,0,87.032.07,150.617s0,139.311,0,223.384v40.009c0,1.344-.082,2.723-.141,4.09a29.562,29.562,0,0,1-.766,4.044,27.115,27.115,0,0,1-8.688,13.815,28.948,28.948,0,0,1-7.073,4.338,27.171,27.171,0,0,1-8.146,1.91l-2.11.106H164.939A27.891,27.891,0,0,1,147.61,477.9a27.233,27.233,0,0,1-10.491-14.617,29.6,29.6,0,0,1-1.1-9.018V27.787c0-1.072.082-2.157.117-3.23a24.172,24.172,0,0,1,.472-3.182,27.707,27.707,0,0,1,5.423-11.388A26.993,26.993,0,0,1,163.76.026h39.95a8.545,8.545,0,0,1,8.652,5.482,9.556,9.556,0,0,1,.59,2.617c.07.907,0,1.756,0,2.628v5.164a8.607,8.607,0,0,0,1.85,4.55,8.033,8.033,0,0,0,4.02,2.688,18.535,18.535,0,0,0,4.857.306h64a7.637,7.637,0,0,0,3.289-1.179,8.46,8.46,0,0,0,3.8-5.363A13.615,13.615,0,0,0,295,13.677V10.624a19.493,19.493,0,0,1,.13-3.112,8.579,8.579,0,0,1,.966-2.865,8.454,8.454,0,0,1,4.2-3.819,12.8,12.8,0,0,1,5.281-.59L322.9.321H305.583a12.755,12.755,0,0,0-5.211.6,8.252,8.252,0,0,0-4.09,3.737,8.657,8.657,0,0,0-.932,2.794,20.391,20.391,0,0,0-.117,3.076v3.195a14.222,14.222,0,0,1-.224,3.289,8.75,8.75,0,0,1-3.89,5.529,7.993,7.993,0,0,1-3.407,1.178c-1.179.083-2.429,0-3.666,0H221.274a8.9,8.9,0,0,1-2.5-.318,8.456,8.456,0,0,1-4.208-2.805,9.134,9.134,0,0,1-1.945-4.716c-.1-1.744,0-3.442,0-5.2V8.089a8.764,8.764,0,0,0-.578-2.51A8.135,8.135,0,0,0,203.792.356H163.76a26.584,26.584,0,0,0-21.219,9.82,27.376,27.376,0,0,0-5.328,11.2c-.165,1.037-.353,2.074-.448,3.123a26.193,26.193,0,0,0-.118,3.2v426.47A28.983,28.983,0,0,0,137.72,463a26.57,26.57,0,0,0,10.256,14.287,27.216,27.216,0,0,0,16.975,4.715H337.045l2.063-.106a26.4,26.4,0,0,0,7.969-1.874,27.66,27.66,0,0,0,6.966-4.232,26.345,26.345,0,0,0,8.523-13.38,28.019,28.019,0,0,0,.755-3.949c0-1.344.165-2.676.141-4.031V414.425c0-84.073.071-159.788.106-223.384s.094-115.052.13-150.617V27.846a27.6,27.6,0,0,0-1.9-10.774,26.763,26.763,0,0,0-5-7.945,25.46,25.46,0,0,0-6.024-4.951A25.215,25.215,0,0,0,340.841.639a21.434,21.434,0,0,0-2.7-.247Z" fill="#263238"/>
            <path id="Path_260" data-name="Path 260" d="M164.668,401.658H325.175a6.8,6.8,0,0,1,6.8,6.8v24.354a6.8,6.8,0,0,1-6.8,6.8H164.668a6.8,6.8,0,0,1-6.8-6.8V408.46a6.8,6.8,0,0,1,6.8-6.8" fill="#286fd1"/>
            <path id="Path_261" data-name="Path 261" d="M166.13,143.624H323.713a8.264,8.264,0,0,1,8.264,8.263v21.137a8.264,8.264,0,0,1-8.264,8.263H166.13a8.263,8.263,0,0,1-8.263-8.263V151.887a8.263,8.263,0,0,1,8.263-8.263" fill="#ebebeb"/>
            <path id="Path_262" data-name="Path 262" d="M323.725,181.287h.259a3.662,3.662,0,0,0,.79-.071,7.96,7.96,0,0,0,2.9-.978,8.251,8.251,0,0,0,3.371-3.537,8.044,8.044,0,0,0,.8-3.053v-3.654c0-5.175,0-11.529-.094-18.861a8.182,8.182,0,0,0-2.358-4.939,8.049,8.049,0,0,0-5.316-2.358h-13.2l-144.758.1a7.991,7.991,0,0,0-7.615,5.622,18.648,18.648,0,0,0-.354,5.093v17.965a8.386,8.386,0,0,0,.271,2.428,7.928,7.928,0,0,0,2.523,4.032,8.02,8.02,0,0,0,4.326,1.874c1.592.083,3.277,0,4.9,0h28.516l65.058.059,43.864.106h0l-43.864.094-65.058.071H165.234a8.535,8.535,0,0,1-7.368-6.082,9.169,9.169,0,0,1-.282-2.582v-20.57a9.758,9.758,0,0,1,.377-2.664,8.615,8.615,0,0,1,8.251-6.059l144.723.082h13.214a8.416,8.416,0,0,1,8.028,7.58c.071,7.391,0,13.7,0,18.861v3.666a8.3,8.3,0,0,1-.849,3.124,8.179,8.179,0,0,1-3.477,3.607,7.767,7.767,0,0,1-2.959.931,7.029,7.029,0,0,1-1.167.118" fill="#263238"/>
            <path id="Path_263" data-name="Path 263" d="M241.033,55.247a14.759,14.759,0,1,1,0,20.872,14.758,14.758,0,0,1,0-20.872" fill="#f5f5f5"/>
            <path id="Path_264" data-name="Path 264" d="M261.012,76.878a9.431,9.431,0,0,0-9.537-8.381,9.689,9.689,0,0,0-9.536,8.416,13.072,13.072,0,0,0,9.536,3.537,13.521,13.521,0,0,0,9.537-3.572" fill="#e0e0e0"/>
            <path id="Path_265" data-name="Path 265" d="M251.475,57.935a5.788,5.788,0,1,1-5.788,5.788,5.788,5.788,0,0,1,5.788-5.788" fill="#e0e0e0"/>
            <path id="Path_266" data-name="Path 266" d="M260.941,76.371a11.61,11.61,0,0,0-.9-2.723,9.186,9.186,0,0,0-2.086-2.57,11.48,11.48,0,0,0-3.773-2.11l-.294-.106.271-.141a5.769,5.769,0,0,0,2.3-2.358,5.648,5.648,0,0,0-1.179-6.873,5.589,5.589,0,0,0-7.5,0,5.49,5.49,0,0,0-1.815,3.348,5.575,5.575,0,0,0,.59,3.537,5.472,5.472,0,0,0,1.013,1.344,6.714,6.714,0,0,0,1.273.978l.26.165-.295.082a8.848,8.848,0,0,0-3.772,2.087,9.358,9.358,0,0,0-1.969,2.664,10.251,10.251,0,0,0-.778,1.992,5.539,5.539,0,0,0-.141.543.821.821,0,0,1-.059.188v-.2a1.266,1.266,0,0,1,.106-.554,10.542,10.542,0,0,1,.719-2.04,9.661,9.661,0,0,1,1.969-2.758,8.91,8.91,0,0,1,3.843-2.181v.236a7.411,7.411,0,0,1-1.333-.99,6.428,6.428,0,0,1-1.072-1.415,5.976,5.976,0,0,1-.649-3.7,5.9,5.9,0,0,1,1.91-3.537,6.008,6.008,0,0,1,3.973-1.52,5.893,5.893,0,0,1,5.2,8.794,6.019,6.019,0,0,1-2.44,2.357v-.247a11.688,11.688,0,0,1,3.843,2.2,9.136,9.136,0,0,1,2.075,2.664,7.04,7.04,0,0,1,.459,1.179,4.071,4.071,0,0,1,.213.884l.082.566c-.035.153-.035.212-.047.212" fill="#263238"/>
            <path id="Path_267" data-name="Path 267" d="M266.234,65.679a.668.668,0,0,1,0-.236V64.229a4.528,4.528,0,0,0-.094-.625,10.373,10.373,0,0,0-.319-1.52,14.233,14.233,0,0,0-1.638-3.9,14.642,14.642,0,0,0-3.737-4.15,14.477,14.477,0,0,0-6.283-2.676,14.712,14.712,0,0,0-7.686.637,16.114,16.114,0,0,0-1.91.849,15.029,15.029,0,0,0-1.78,1.179,15.77,15.77,0,0,0-1.662,1.414,15.564,15.564,0,0,0-3.536,5.717,14.592,14.592,0,0,0,2.086,13.25,16.4,16.4,0,0,0,1.439,1.686,16.831,16.831,0,0,0,1.65,1.414,18.326,18.326,0,0,0,1.792,1.179,15.8,15.8,0,0,0,1.909.837,14.626,14.626,0,0,0,17.588-6.236,14.223,14.223,0,0,0,1.639-3.9,10.366,10.366,0,0,0,.318-1.52,4.544,4.544,0,0,1,.094-.613,3.738,3.738,0,0,0,0-.519v-.707a.668.668,0,0,1,0-.236v1.462a1.738,1.738,0,0,1-.082.625,9.724,9.724,0,0,1-.283,1.532,13.739,13.739,0,0,1-1.615,3.973,14.423,14.423,0,0,1-3.749,4.243,14.768,14.768,0,0,1-6.259,2.818,15.036,15.036,0,0,1-7.839-.637,15.617,15.617,0,0,1-1.945-.849,15.941,15.941,0,0,1-1.839-1.178,19.251,19.251,0,0,1-1.686-1.439,17.249,17.249,0,0,1-1.473-1.732,14.89,14.89,0,0,1,0-17.659,17.235,17.235,0,0,1,1.473-1.721,15.014,15.014,0,0,1,1.792-1.509,13.812,13.812,0,0,1,1.827-1.179,15.609,15.609,0,0,1,1.945-.848,14.854,14.854,0,0,1,17.894,6.424,13.672,13.672,0,0,1,1.615,3.973,9.721,9.721,0,0,1,.283,1.532c0,.224.071.436.083.625s0,.365,0,.519V65.7Z" fill="#263238"/>
            <path id="Path_268" data-name="Path 268" d="M164.809,48.142a.531.531,0,0,1-.377-.153l-5.541-4.857a.578.578,0,0,1,0-.884l5.541-4.6a.564.564,0,0,1,.8.053l.015.017a.578.578,0,0,1-.058.815l-.013.01-4.951,4.162,5.022,4.408a.577.577,0,0,1,.069.814l-.01.012a.614.614,0,0,1-.495.2" fill="#263238"/>
            <circle id="Ellipse_5" data-name="Ellipse 5" cx="2.959" cy="2.959" r="2.959" transform="translate(318.762 41.225) rotate(-22.5)" fill="#263238"/>
            <path id="Path_269" data-name="Path 269" d="M334.122,42.826a2.953,2.953,0,1,1,0-.012v.012" fill="#263238"/>
            <path id="Path_270" data-name="Path 270" d="M342.656,42.826a2.959,2.959,0,1,1-2.959-2.959h.012a2.959,2.959,0,0,1,2.947,2.959" fill="#263238"/>
            <path id="Path_271" data-name="Path 271" d="M23.6,215.345c13.91,7.2,24.566,19.6,32.229,33.254s12.613,28.634,17.505,43.51l4.279,76.7c-16.173-27.513-29.164-59.907-32.665-91.6l10.763-.955c-7.215-1.108-13.274-6.33-17.128-12.531s-5.894-13.356-7.78-20.393l13.131,1.921A48.675,48.675,0,0,1,23.6,215.345" fill="#455a64"/>
            <g id="Group_62" data-name="Group 62" opacity="0.3">
              <g id="Group_61" data-name="Group 61">
                <g id="Group_60" data-name="Group 60" clip-path="url(#clip-path-3)">
                  <path id="Path_272" data-name="Path 272" d="M23.6,215.345c13.91,7.2,24.566,19.6,32.229,33.254s12.613,28.634,17.505,43.51l4.279,76.7c-16.173-27.513-29.164-59.907-32.665-91.6l10.763-.955c-7.215-1.108-13.274-6.33-17.128-12.531s-5.894-13.356-7.78-20.393l13.131,1.921A48.675,48.675,0,0,1,23.6,215.345"/>
                </g>
              </g>
            </g>
            <path id="Path_273" data-name="Path 273" d="M80.065,386.791s35.117-42.025,34.716-82.151H100.635s15.407-10.138,14.146-15.808-1.627-27.113-1.627-27.113l-12.967,3.242s9.725-4.868,10.94-12.566-2.83-43.368-2.83-43.368S92.49,225.648,87.621,242.67s-17.682,36.873-13.874,88.752,6.318,55.369,6.318,55.369" fill="#455a64"/>
            <path id="Path_274" data-name="Path 274" d="M62.206,390.763s-38.04-25.344-46.492-57.691l11.4-3.112s-14.594-4.774-14.865-9.6-4.633-22.185-4.633-22.185l11.14-.236s-8.888-1.78-11.552-7.709S0,254.752,0,254.752s16.339,9.9,23.977,22.527,22.244,25.792,30.579,68.312,7.65,45.172,7.65,45.172" fill="#455a64"/>
            <path id="Path_275" data-name="Path 275" d="M98.643,245.64a2.5,2.5,0,0,1-.059.448l-.248,1.308c-.235,1.179-.565,2.865-1,5.01s-.979,4.834-1.557,7.934-1.284,6.613-1.968,10.515c-1.45,7.8-2.994,17.116-4.586,27.49s-3.112,21.784-4.526,33.808-2.452,23.5-3.313,33.961-1.438,19.887-1.8,27.808c-.224,3.961-.354,7.545-.484,10.692s-.224,5.894-.283,8.075-.141,3.9-.176,5.1a8.407,8.407,0,0,1-.059,1.332,2.792,2.792,0,0,1,0,.448,2.578,2.578,0,0,1,0-.448v-6.436c0-2.192.082-4.939.188-8.086s.189-6.743.389-10.7c.319-7.933.9-17.364,1.674-27.832s1.9-21.949,3.277-33.985,2.983-23.458,4.562-33.832,3.218-19.674,4.716-27.466c.707-3.914,1.438-7.426,2.062-10.515s1.179-5.741,1.663-7.91.848-3.819,1.108-4.986l.306-1.3a2.651,2.651,0,0,1,.118-.436" fill="#263238"/>
            <path id="Path_276" data-name="Path 276" d="M84.886,412.524s32.134-36.461,42.107-58.493l-7.533-3.218c5.458.9,11.058-1.45,15.325-5.01s7.344-8.251,10.385-12.872l-9.949-1.627a36.917,36.917,0,0,0,21.678-16.8c-11.717,1.933-22.3,8.358-31.038,16.4a155.125,155.125,0,0,0-18.8,21.737,73.833,73.833,0,0,0-7.3,12.013c-5.4,11.163-14.9,34.491-14.877,47.871" fill="#455a64"/>
            <path id="Path_277" data-name="Path 277" d="M15.23,275.971a2.406,2.406,0,0,1,.212.342c.13.271.318.6.542,1.037.5.943,1.179,2.287,2.063,4,1.792,3.466,4.3,8.523,7.309,14.83s6.472,13.851,10.161,22.3,7.556,17.847,11.411,27.773,7.25,19.5,10.244,28.232,5.482,16.657,7.485,23.341,3.537,12.118,4.574,15.89l1.179,4.338.295,1.179a1.71,1.71,0,0,1,.071.389,1.157,1.157,0,0,1-.13-.377c-.094-.272-.212-.649-.354-1.109-.295-1.025-.719-2.475-1.261-4.314-1.085-3.749-2.7-9.159-4.715-15.82s-4.633-14.558-7.615-23.293-6.449-18.248-10.28-28.185-7.721-19.3-11.352-27.773S28,302.718,25.026,296.353s-5.387-11.4-7.073-14.9L16,277.409c-.212-.448-.377-.79-.495-1.061a2.1,2.1,0,0,1-.271-.377" fill="#263238"/>
            <path id="Path_278" data-name="Path 278" d="M82.151,428.155a3.4,3.4,0,0,1,0-.684c0-.518.118-1.179.189-1.957s.212-1.886.4-3.076.366-2.57.661-4.067c.518-3.006,1.308-6.554,2.357-10.456s2.358-8.122,4.008-12.484,3.466-8.416,5.246-12.035,3.536-6.79,5.163-9.431c.766-1.32,1.532-2.464,2.193-3.536a25.765,25.765,0,0,1,1.732-2.57c.554-.7.837-1.179,1.179-1.591a2.886,2.886,0,0,1,.436-.543,3.618,3.618,0,0,1-.33.613l-1.049,1.651c-.471.719-1.025,1.591-1.65,2.628s-1.368,2.193-2.11,3.537c-1.533,2.617-3.254,5.811-5.022,9.43s-3.536,7.663-5.175,12-2.959,8.558-4.043,12.424-1.875,7.4-2.452,10.385c-.318,1.486-.531,2.841-.743,4.032s-.377,2.216-.507,3.065-.224,1.426-.306,1.933a3.121,3.121,0,0,1-.177.731" fill="#263238"/>
            <rect id="Rectangle_42" data-name="Rectangle 42" width="70.328" height="14.346" transform="translate(39.749 419.574)" fill="#286fd1"/>
            <path id="Path_279" data-name="Path 279" d="M103.382,433.92l-7.6,48.26h-42.5l-7.1-48.26Z" fill="#286fd1"/>
            <path id="Path_280" data-name="Path 280" d="M44.064,433.92c0-.165,13.309-.307,29.718-.307s29.718.142,29.718.307-13.309.307-29.718.307-29.718-.13-29.718-.307" fill="#263238"/>
          </g>
        </g>
        <text id="Register" transform="translate(216.203 109.258)" font-size="17" font-family="PlusJakartaSans-Medium, Plus Jakarta Sans" font-weight="500"><tspan x="0" y="0" letter-spacing="-0.029em">R</tspan><tspan y="0">egis</tspan><tspan y="0" letter-spacing="-0.015em">t</tspan><tspan y="0">er</tspan></text>
        <text id="Register_Now_" data-name="Register Now!" transform="translate(199.21 424.907)" fill="#fff" font-size="13.5" font-family="PlusJakartaSans-SemiBold, Plus Jakarta Sans" font-weight="600"><tspan x="0" y="0" letter-spacing="-0.029em">R</tspan><tspan y="0">egis</tspan><tspan y="0" letter-spacing="-0.01em">t</tspan><tspan y="0">er N</tspan><tspan y="0" letter-spacing="-0.009em">o</tspan><tspan y="0">w!</tspan></text>
        <text id="E-mail" transform="translate(157.866 136.295)" font-size="10" font-family="Montserrat-Regular, Montserrat"><tspan x="0" y="0" letter-spacing="-0.031em">E</tspan><tspan y="0" letter-spacing="-0.011em">-m</tspan><tspan y="0" letter-spacing="-0.012em">a</tspan><tspan y="0" letter-spacing="-0.011em">i</tspan><tspan y="0">l</tspan></text>
        <g id="Group_66" data-name="Group 66">
          <g id="Group_65" data-name="Group 65" clip-path="url(#clip-path)">
            <path id="Path_281" data-name="Path 281" d="M166.13,208.483H323.713a8.264,8.264,0,0,1,8.264,8.263v21.137a8.264,8.264,0,0,1-8.264,8.263H166.13a8.263,8.263,0,0,1-8.263-8.263V216.746a8.263,8.263,0,0,1,8.263-8.263" fill="#ebebeb"/>
            <path id="Path_282" data-name="Path 282" d="M323.725,246.146h.259a6.735,6.735,0,0,0,.79-.083,8.145,8.145,0,0,0,2.9-.966,8.33,8.33,0,0,0,3.371-3.537,8.044,8.044,0,0,0,.8-3.053v-3.666c0-5.163,0-11.529-.094-18.861a8.113,8.113,0,0,0-2.358-4.927,8,8,0,0,0-5.316-2.3h-13.2l-144.758.036a8,8,0,0,0-7.615,5.634,18.558,18.558,0,0,0-.354,5.081V237.47a8.283,8.283,0,0,0,.271,2.428,7.928,7.928,0,0,0,2.523,4.032,8.02,8.02,0,0,0,4.326,1.874c1.592.094,3.277,0,4.9,0h28.516l65.058.071,43.864.094,11.929.059h0l-11.929.059-43.864.106-65.058.059H170.2c-1.65,0-3.254.059-4.963,0a8.537,8.537,0,0,1-7.368-6.153,9.133,9.133,0,0,1-.282-2.582v-20.6a9.838,9.838,0,0,1,.377-2.676,8.615,8.615,0,0,1,8.251-6.059l144.723.082,13.144.012a8.369,8.369,0,0,1,5.564,2.428,8.474,8.474,0,0,1,2.463,5.152c.071,7.391,0,13.7,0,18.861v3.677a8.355,8.355,0,0,1-4.326,6.731,7.915,7.915,0,0,1-2.959.92,7.06,7.06,0,0,1-1.1.106" fill="#263238"/>
          </g>
        </g>
        <text id="Password" transform="translate(157.866 201.85)" font-size="10" font-family="Montserrat-Regular, Montserrat"><tspan x="0" y="0" letter-spacing="-0.026em">P</tspan><tspan y="0" letter-spacing="-0.011em">as</tspan><tspan y="0" letter-spacing="-0.021em">s</tspan><tspan y="0" letter-spacing="-0.027em">w</tspan><tspan y="0" letter-spacing="-0.011em">o</tspan><tspan y="0" letter-spacing="-0.024em">r</tspan><tspan y="0">d</tspan></text>
        <g id="Group_68" data-name="Group 68">
          <g id="Group_67" data-name="Group 67" clip-path="url(#clip-path)">
            <path id="Path_283" data-name="Path 283" d="M166.13,274.206H323.713a8.264,8.264,0,0,1,8.264,8.263v21.137a8.264,8.264,0,0,1-8.264,8.263H166.13a8.263,8.263,0,0,1-8.263-8.263V282.469a8.263,8.263,0,0,1,8.263-8.263" fill="#ebebeb"/>
            <path id="Path_284" data-name="Path 284" d="M323.725,311.869h.259a6.735,6.735,0,0,0,.79-.083,8.146,8.146,0,0,0,2.9-.966,8.33,8.33,0,0,0,3.371-3.537,8.044,8.044,0,0,0,.8-3.053v-3.666c0-5.163,0-11.529-.094-18.861a8.113,8.113,0,0,0-2.358-4.927,8,8,0,0,0-5.316-2.3h-13.2l-144.758.036a8,8,0,0,0-7.615,5.634,18.558,18.558,0,0,0-.354,5.081v17.965a8.284,8.284,0,0,0,.271,2.428,7.928,7.928,0,0,0,2.523,4.032,8.02,8.02,0,0,0,4.326,1.874c1.592.094,3.277,0,4.9,0h28.516l65.058.071,43.864.094,11.929.059h0l-11.929.059-43.864.106-65.058.059H170.2c-1.65,0-3.254.059-4.963,0a8.537,8.537,0,0,1-7.368-6.153,9.133,9.133,0,0,1-.282-2.582v-20.6a9.838,9.838,0,0,1,.377-2.676,8.615,8.615,0,0,1,8.251-6.059l144.723.082,13.144.012a8.37,8.37,0,0,1,5.564,2.428,8.474,8.474,0,0,1,2.463,5.152c.071,7.391,0,13.7,0,18.861v3.677a8.355,8.355,0,0,1-4.326,6.731,7.915,7.915,0,0,1-2.959.92,7.062,7.062,0,0,1-1.1.106" fill="#263238"/>
          </g>
        </g>
        <text id="Email_Address" data-name="Email Address" transform="translate(157.866 267.573)" font-size="10" font-family="Montserrat-Regular, Montserrat"><tspan x="0" y="0" letter-spacing="-0.011em">Emai</tspan><tspan y="0" letter-spacing="-0.012em">l</tspan><tspan y="0" letter-spacing="-0.011em"> </tspan><tspan y="0" letter-spacing="-0.016em">A</tspan><tspan y="0" letter-spacing="-0.011em">d</tspan><tspan y="0" letter-spacing="-0.012em">d</tspan><tspan y="0" letter-spacing="-0.024em">r</tspan><tspan y="0" letter-spacing="-0.011em">es</tspan><tspan y="0">s</tspan></text>
        <g id="Group_70" data-name="Group 70">
          <g id="Group_69" data-name="Group 69" clip-path="url(#clip-path)">
            <path id="Path_285" data-name="Path 285" d="M166.13,339.187H323.713a8.264,8.264,0,0,1,8.264,8.263v21.137a8.264,8.264,0,0,1-8.264,8.263H166.13a8.263,8.263,0,0,1-8.263-8.263V347.45a8.263,8.263,0,0,1,8.263-8.263" fill="#ebebeb"/>
            <path id="Path_286" data-name="Path 286" d="M323.725,376.85h.259a6.735,6.735,0,0,0,.79-.083,8.144,8.144,0,0,0,2.9-.966,8.33,8.33,0,0,0,3.371-3.537,8.044,8.044,0,0,0,.8-3.053v-3.666c0-5.163,0-11.529-.094-18.861a8.113,8.113,0,0,0-2.358-4.927,8,8,0,0,0-5.316-2.3h-13.2l-144.758.036a8,8,0,0,0-7.615,5.634,18.558,18.558,0,0,0-.354,5.081v17.965a8.283,8.283,0,0,0,.271,2.428,7.928,7.928,0,0,0,2.523,4.032,8.02,8.02,0,0,0,4.326,1.874c1.592.094,3.277,0,4.9,0h28.516l65.058.071,43.864.094,11.929.059h0l-11.929.059-43.864.106-65.058.059H170.2c-1.65,0-3.254.059-4.963,0a8.537,8.537,0,0,1-7.368-6.153,9.133,9.133,0,0,1-.282-2.582V347.616a9.838,9.838,0,0,1,.377-2.676,8.615,8.615,0,0,1,8.251-6.059l144.723.082,13.144.012a8.369,8.369,0,0,1,5.564,2.428,8.474,8.474,0,0,1,2.463,5.152c.071,7.391,0,13.7,0,18.861v3.677a8.355,8.355,0,0,1-4.326,6.731,7.915,7.915,0,0,1-2.959.92,7.062,7.062,0,0,1-1.1.106" fill="#263238"/>
          </g>
        </g>
        <text id="Phone_Number" data-name="Phone Number" transform="translate(157.866 332.554)" font-size="10" font-family="Montserrat-Regular, Montserrat"><tspan x="0" y="0" letter-spacing="-0.011em">P</tspan><tspan y="0" letter-spacing="-0.012em">h</tspan><tspan y="0" letter-spacing="-0.011em">one N</tspan><tspan y="0" letter-spacing="-0.012em">u</tspan><tspan y="0" letter-spacing="-0.011em">mbe</tspan><tspan y="0">r</tspan></text>
        <g id="Group_84" data-name="Group 84">
          <g id="Group_83" data-name="Group 83" clip-path="url(#clip-path)">
            <path id="Path_287" data-name="Path 287" d="M484.962,150.722H414.387a11.128,11.128,0,0,0-11.128,11.128v17.564a11.128,11.128,0,0,0,11.128,11.128h.731v10.032l11.3-10.032h58.54a11.128,11.128,0,0,0,11.128-11.128V161.85a11.128,11.128,0,0,0-11.128-11.128" fill="#fff"/>
            <path id="Path_288" data-name="Path 288" d="M484.962,150.722h.613a10.217,10.217,0,0,1,1.627.153c.353.071.754.177,1.179.283a12,12,0,0,1,1.367.531,10.944,10.944,0,0,1,3.041,2.051,11.432,11.432,0,0,1,2.629,3.772,12.82,12.82,0,0,1,.884,5.4v17.211a11.363,11.363,0,0,1-7.073,9.831,11.959,11.959,0,0,1-4.479.837h-58.3l.2-.083-11.293,10.044-.518.448V190.483l.306.307a11.977,11.977,0,0,1-6.33-1.474,11.653,11.653,0,0,1-4.491-4.585,12.527,12.527,0,0,1-1.1-3.018,15.1,15.1,0,0,1-.247-3.147V163.441c0-.978,0-1.956.082-2.958a11.47,11.47,0,0,1,6.578-9.054,12,12,0,0,1,5.47-1.049h33.82l26.393.1h0l-26.393.106H415.094a11.269,11.269,0,0,0-5.234,1,10.858,10.858,0,0,0-6.236,8.605,26.226,26.226,0,0,0-.071,2.9v15.124a14.439,14.439,0,0,0,.236,3.029,12.08,12.08,0,0,0,1.049,2.853,10.987,10.987,0,0,0,4.256,4.338,11.387,11.387,0,0,0,6.024,1.391h.306v10.35l-.519-.224,11.3-10.032.083-.082h53.765c3.148-.094,6.283.389,8.959-.778a10.893,10.893,0,0,0,6.814-9.431c.07-1.273,0-2.569,0-3.807v-13.38a12.693,12.693,0,0,0-.814-5.3,11.218,11.218,0,0,0-2.534-3.713,10.741,10.741,0,0,0-2.959-2.052,12.938,12.938,0,0,0-1.332-.542l-1.179-.306a20.451,20.451,0,0,0-2.051.2" fill="#263238"/>
            <path id="Path_289" data-name="Path 289" d="M395.019,428.438s84.532-44.04,102.863-19.745-18.4,43.38-25.5,47.671-78.9,28.68-78.9,28.68l-18.944-20.216Z" fill="#263238"/>
            <path id="Path_290" data-name="Path 290" d="M428.356,452l33.7,18.142,30.8,6.672a3.937,3.937,0,0,1,3,4.694c-.018.079-.037.156-.059.233a3.869,3.869,0,0,1-2.464,2.606c-7.65,2.664-35.812,12.318-38.2,10.856-2.77-1.7-36.826-16.786-36.826-16.786Z" fill="#286fd1"/>
            <g id="Group_73" data-name="Group 73" opacity="0.6">
              <g id="Group_72" data-name="Group 72">
                <g id="Group_71" data-name="Group 71" clip-path="url(#clip-path-8)">
                  <path id="Path_291" data-name="Path 291" d="M495.8,481.744,452.827,493.98l1.439.743a5.9,5.9,0,0,0,4.056.483c3.642-.861,13.661-3.536,34.95-10.8A3.916,3.916,0,0,0,495.8,481.7Z" fill="#fff"/>
                </g>
              </g>
            </g>
            <g id="Group_76" data-name="Group 76" opacity="0.6">
              <g id="Group_75" data-name="Group 75">
                <g id="Group_74" data-name="Group 74" clip-path="url(#clip-path-9)">
                  <path id="Path_292" data-name="Path 292" d="M445.39,481.426a2.357,2.357,0,0,1,3.053.825,2.287,2.287,0,0,1-.79,3.042,2.513,2.513,0,0,1-3.23-.9,2.357,2.357,0,0,1,1.179-3.065" fill="#fff"/>
                </g>
              </g>
            </g>
            <path id="Path_293" data-name="Path 293" d="M476.923,481.944c.189-.141-1.179-1.827-1.179-4.338s1.438-4.161,1.25-4.314-.554.224-1.073.966a6.157,6.157,0,0,0-1.014,3.336,6.085,6.085,0,0,0,.92,3.36c.542.754,1.025,1.061,1.1.99" fill="#263238"/>
            <path id="Path_294" data-name="Path 294" d="M482.723,481.838c.235-.083-.319-1.745.07-3.76s1.461-3.384,1.273-3.537-1.686,1.085-2.1,3.4.578,4.043.755,3.9" fill="#263238"/>
            <path id="Path_295" data-name="Path 295" d="M468.765,483.489c.236-.083-.625-2.629-.283-5.823s1.627-5.541,1.4-5.659-1.922,2.146-2.24,5.576.943,6.024,1.12,5.906" fill="#263238"/>
            <path id="Path_296" data-name="Path 296" d="M458.062,478.82c.248,0,.413-2.263,1.58-4.715s2.734-4.138,2.569-4.326-2.121,1.273-3.336,3.972-1.037,5.1-.813,5.069" fill="#263238"/>
            <path id="Path_297" data-name="Path 297" d="M448.03,473.752c.248,0,.083-2.487,1.521-5.01s3.536-3.737,3.43-3.949-.66.071-1.509.625a8.321,8.321,0,0,0-2.664,2.911,8.467,8.467,0,0,0-1.061,3.808c-.012,1.014.177,1.627.283,1.615" fill="#263238"/>
            <path id="Path_298" data-name="Path 298" d="M447.606,467.834a4.535,4.535,0,0,0-1.261-.707,10.052,10.052,0,0,0-3.9-.7,4.494,4.494,0,0,0-2.77.731,1.615,1.615,0,0,0-.495,1.745,2.6,2.6,0,0,0,1.273,1.332,5.54,5.54,0,0,0,6.766-2,6.414,6.414,0,0,0-.13-7.156,2.216,2.216,0,0,0-1.6-.943,1.558,1.558,0,0,0-1.462,1.073,5.475,5.475,0,0,0,0,2.841,11.138,11.138,0,0,0,1.462,3.678,4.8,4.8,0,0,0,.92,1.179,17.679,17.679,0,0,1-1.792-4.916,5.033,5.033,0,0,1,0-2.475.815.815,0,0,1,.79-.59,1.51,1.51,0,0,1,1.025.684,5.717,5.717,0,0,1,0,6.2,4.809,4.809,0,0,1-5.717,1.78,1.892,1.892,0,0,1-.931-.884.86.86,0,0,1,.259-.966,4.028,4.028,0,0,1,2.358-.672,14.822,14.822,0,0,1,5.21.766" fill="#263238"/>
            <path id="Path_299" data-name="Path 299" d="M440.439,456.317s-79.652-48.26-90.415-54.225c-9.253-5.152-38.488-16.5-48.791,11.493S346.4,482.946,346.4,482.946l47.082,2.11,15.714-6,17.847,5.493Z" fill="#263238"/>
            <path id="Path_300" data-name="Path 300" d="M384.433,486.023l-35.706,13.851-25.085,19.061a3.925,3.925,0,0,1-5.5-.744c-.055-.073-.108-.147-.157-.222a3.912,3.912,0,0,1-.378-3.537c2.947-7.532,13.934-35.211,16.6-36.071,3.088-1,36.7-17.058,36.7-17.058Z" fill="#286fd1"/>
            <g id="Group_79" data-name="Group 79" opacity="0.6">
              <g id="Group_78" data-name="Group 78">
                <g id="Group_77" data-name="Group 77" clip-path="url(#clip-path-10)">
                  <path id="Path_301" data-name="Path 301" d="M317.984,517.91,336.6,477.276l-1.5.613a5.9,5.9,0,0,0-3.006,2.759c-1.709,3.336-6.236,12.66-14.534,33.584A3.937,3.937,0,0,0,317.984,517.91Z" fill="#fff"/>
                </g>
              </g>
            </g>
            <g id="Group_82" data-name="Group 82" opacity="0.6">
              <g id="Group_81" data-name="Group 81">
                <g id="Group_80" data-name="Group 80" clip-path="url(#clip-path-11)">
                  <path id="Path_302" data-name="Path 302" d="M351,479.834a2.358,2.358,0,0,1-2.617,1.78,2.275,2.275,0,0,1-1.792-2.57,2.511,2.511,0,0,1,2.782-1.874,2.358,2.358,0,0,1,1.568,2.888" fill="#fff"/>
                </g>
              </g>
            </g>
            <path id="Path_303" data-name="Path 303" d="M330.1,503.41c0,.248,2.169.271,4.032,1.969s2.228,3.8,2.463,3.748.189-.566,0-1.438a6.233,6.233,0,0,0-5.021-4.42c-.932-.1-1.474.07-1.474.141" fill="#263238"/>
            <path id="Path_304" data-name="Path 304" d="M326.436,507.913c-.083.236,1.532.9,2.806,2.511s1.638,3.3,1.874,3.265.271-1.98-1.179-3.8-3.5-2.2-3.5-1.98" fill="#263238"/>
            <path id="Path_305" data-name="Path 305" d="M334.24,496.243c-.094.236,2.358,1.238,4.609,3.536s3.148,4.834,3.383,4.716-.377-2.853-2.782-5.329-5.186-3.135-5.21-2.923" fill="#263238"/>
            <path id="Path_306" data-name="Path 306" d="M344.743,491.139c-.177.177,1.45,1.792,2.593,4.3s1.368,4.774,1.615,4.715.4-2.44-.848-5.116-3.242-4.091-3.36-3.9" fill="#263238"/>
            <path id="Path_307" data-name="Path 307" d="M355.116,486.825c-.153.189,1.839,1.662,2.829,4.409s.507,5.128.755,5.175.377-.543.518-1.556a8.249,8.249,0,0,0-.495-3.914,8.418,8.418,0,0,0-2.192-3.289c-.767-.672-1.356-.919-1.415-.825" fill="#263238"/>
            <path id="Path_308" data-name="Path 308" d="M359.891,490.349a3.186,3.186,0,0,0,1.356-.507,9.97,9.97,0,0,0,3.065-2.511,4.41,4.41,0,0,0,1.237-2.581,1.554,1.554,0,0,0-1-1.509,2.556,2.556,0,0,0-1.827.106,5.553,5.553,0,0,0-2.888,6.448,6.436,6.436,0,0,0,5.529,4.55,2.224,2.224,0,0,0,1.756-.613,1.556,1.556,0,0,0,.13-1.8,5.345,5.345,0,0,0-2.169-1.828,11.425,11.425,0,0,0-3.749-1.284,3.508,3.508,0,0,0-1.45,0,18.025,18.025,0,0,1,4.9,1.827,5.1,5.1,0,0,1,1.851,1.65.8.8,0,0,1-.071.978,1.517,1.517,0,0,1-1.179.342,5.751,5.751,0,0,1-4.715-4.008,4.822,4.822,0,0,1,2.358-5.5,1.815,1.815,0,0,1,1.273-.129.849.849,0,0,1,.566.825,4.027,4.027,0,0,1-1,2.2,14.8,14.8,0,0,1-3.973,3.348" fill="#263238"/>
            <path id="Path_309" data-name="Path 309" d="M368.873,494.935c1-.519,41.329-16.939,41.329-16.939l-40.079-19.852L346,470.652Z" fill="#263238"/>
            <path id="Path_310" data-name="Path 310" d="M319.068,446.4l.554.165,1.591.531,6.1,2.11,22.4,7.862,73.853,26.064,3.536,1.1-.365.165,13.45-28.138.118.365L393.84,428.214l-13.368-8.252-3.536-2.216-.908-.589c-.2-.13-.306-.2-.3-.212l.319.176.943.543,3.6,2.133,13.462,8.1,46.563,28.22.224.142-.106.236-13.415,28.173-.118.236-.247-.083-3.537-1.1c-1.851-.53-3.619-1.179-5.4-1.827l-5.3-1.886L402.3,476.3l-19.58-6.991-33.16-11.788-22.339-8.051-6.059-2.216-1.568-.59a4.554,4.554,0,0,1-.53-.259" fill="#455a64"/>
            <path id="Path_311" data-name="Path 311" d="M368.873,494.935a16.663,16.663,0,0,1-1.5-1.426l-3.914-4.044c-3.289-3.43-7.8-8.251-12.766-13.5l-4.987-5.34-.271-.295.354-.177,12.236-5.894,3.536-1.674a9.52,9.52,0,0,1,1.309-.542,6.638,6.638,0,0,1-1.179.719l-3.43,1.745-12.142,6.13.083-.472,5.009,5.328c4.963,5.293,9.431,10.115,12.637,13.627l3.773,4.173a11.293,11.293,0,0,1,1.249,1.639" fill="#455a64"/>
            <path id="Path_312" data-name="Path 312" d="M450.211,416.756c.071.153-9.855,4.468-22.162,9.619s-22.326,9.218-22.4,9.065,9.855-4.468,22.162-9.631,22.4-9.218,22.4-9.053" fill="#455a64"/>
            <path id="Path_313" data-name="Path 313" d="M388.913,295.292c-.837,0-29.918-.271-35.789,5.6s-18.059,95.779-18.059,95.779c6.271,1.178,10.35,3.536,14.146,5.4l49.427,28.821,21.4-11.116a5.374,5.374,0,0,0,1.508-8.169l28.469-102.9a52.584,52.584,0,0,0-13.863-7.545c-8.334-3.064-47.235-5.87-47.235-5.87" fill="#455a64"/>
            <path id="Path_314" data-name="Path 314" d="M440.439,304.84s8.747,1.933,12.1,7.332c7.85,12.649,31.969,57.573,36.024,68.371,4.291,11.4-.318,17.883-3.419,22.692-3.336,5.175-21.666,5.163-29.977-3.713-3.536-3.819-23.411-21.82-23.411-21.82Z" fill="#455a64"/>
            <path id="Path_315" data-name="Path 315" d="M450.388,321.52a6.019,6.019,0,0,1-.33.884l-1.073,2.5c-.884,2.181-2.122,5.352-3.536,9.313-2.853,7.933-6.342,19.026-10.044,31.333s-6.919,23.446-9.312,31.58c-1.179,4.043-2.193,7.308-2.912,9.548l-.849,2.582a5,5,0,0,1-.33.884,6.164,6.164,0,0,1,.212-.92q.284-.978.743-2.617c.66-2.357,1.58-5.587,2.723-9.6,2.287-8.11,5.446-19.309,9.136-31.639s7.261-23.4,10.22-31.3c1.474-3.96,2.782-7.073,3.737-9.265l1.179-2.452a4.72,4.72,0,0,1,.436-.837" fill="#263238"/>
            <path id="Path_316" data-name="Path 316" d="M354.515,299.865s-9.183,5.222-12.543,8.252-38.063,52.551-42.507,67.982c-2.582,8.935,7.261,27.419,17.87,26.523,13.875-1.179,65.931-21.136,65.931-21.136l-11.682-25.427-29.47,4.715,21.395-21.5-7.98-39.986" fill="#455a64"/>
            <path id="Path_317" data-name="Path 317" d="M477.984,375.238a2.789,2.789,0,0,1-.519-.318l-1.438-.99L470.8,370.2c-4.385-3.182-10.421-7.626-17.069-12.566l-4.444-3.312.412-.059c-4.232,5.529-8,10.35-10.75,13.757a40.89,40.89,0,0,1-4.586,5.293l4.279-5.541L449.256,353.9l.177-.236.236.177,4.456,3.3c6.648,4.939,12.637,9.431,16.963,12.72l5.057,3.878,1.367,1.084a2.775,2.775,0,0,1,.472.413" fill="#263238"/>
            <path id="Path_318" data-name="Path 318" d="M395.6,347.065l-23.34,10.456,9.312,20.24,14.594-9.631Z" fill="#b2655f"/>
            <path id="Path_319" data-name="Path 319" d="M417.652,349.045l15.619-10.609a2.876,2.876,0,0,1,1.875-.495l20.417,1.744a1.569,1.569,0,0,1,1.438,1.6,2.781,2.781,0,0,1-.861,2.169l-33.16,23.07L398.225,362.6Z" fill="#e0e0e0"/>
            <path id="Path_320" data-name="Path 320" d="M395.6,347.065s8.428-6.248,10.409-6.59,10.88-.306,10.88-.306l7.5,4.279-4.644,3.147c-3.218-.707-4.138-1.956-4.138-1.956l-5.186.342Z" fill="#b2655f"/>
            <path id="Path_321" data-name="Path 321" d="M405.074,344.354l13.309,4.633,19.144,2.7a4.185,4.185,0,0,1-3.82,4.3c-2.357.247-6.342.519-6.342.519s-.978,3.536-3.96,4.3a9.778,9.778,0,0,1-2.877,3.407,2.348,2.348,0,0,1-.589.259c-1.839.531-5.505,5.517-7.957,6.189s-15.843-2.487-15.843-2.487l-.566-21.054Z" fill="#b2655f"/>
            <path id="Path_322" data-name="Path 322" d="M408.953,355.222c0-.059,1.061.224,2.747.566a50.959,50.959,0,0,0,6.707.872,48.633,48.633,0,0,0,6.743,0c1.733-.118,2.794-.271,2.8-.212a3.5,3.5,0,0,1-.742.177c-.472.094-1.179.2-2.04.294a39.888,39.888,0,0,1-6.79.118,39.413,39.413,0,0,1-6.731-.99c-.848-.2-1.532-.389-1.992-.542a3.479,3.479,0,0,1-.707-.283" fill="#8e4842"/>
            <path id="Path_323" data-name="Path 323" d="M411.57,360.68a2.986,2.986,0,0,1-.13,1.32,2.782,2.782,0,0,1-.719,1.285,2.356,2.356,0,0,1-1.733.578,4.536,4.536,0,0,1-1.721-.495c-.483-.248-.884-.507-1.237-.7-.684-.412-1.179-.566-1.179-.625a2.748,2.748,0,0,1,1.249.389,7.9,7.9,0,0,0,2.865,1.061,2.026,2.026,0,0,0,1.485-.459,2.614,2.614,0,0,0,.7-1.12,11.221,11.221,0,0,1,.424-1.238" fill="#8e4842"/>
            <path id="Path_324" data-name="Path 324" d="M421.413,361.953a5.772,5.772,0,0,1-1.462.377,32.818,32.818,0,0,1-3.536.436,31.662,31.662,0,0,1-3.619,0,5.851,5.851,0,0,1-1.5-.165c0-.118,2.287,0,5.092-.247s5-.472,5.022-.4" fill="#8e4842"/>
            <path id="Path_325" data-name="Path 325" d="M411.31,367.517a4.716,4.716,0,0,1-4.574.719c0-.118,1.061.083,2.358-.118s2.216-.7,2.216-.6" fill="#8e4842"/>
            <path id="Path_326" data-name="Path 326" d="M416.108,367.281a3.412,3.412,0,0,1-1.426.377,3.216,3.216,0,0,1-1.486,0,3.172,3.172,0,0,1,1.438-.377c.8-.094,1.462-.106,1.474,0" fill="#8e4842"/>
            <path id="Path_327" data-name="Path 327" d="M418.383,348.986a36.219,36.219,0,0,1-6.236-2.086c-1.7-.661-3.218-1.285-4.3-1.78a7.717,7.717,0,0,1-1.709-.9,13.756,13.756,0,0,1,1.8.66l4.338,1.674,4.326,1.685a6.081,6.081,0,0,1,1.78.743" fill="#8e4842"/>
            <path id="Path_328" data-name="Path 328" d="M437.94,353.7s-1.475-.507.117-2.829,6.047.5,6.047.5l5.694,3.383s1.274,2.959-.307,3.749l-1.177,1.438s2.226,2.251,1.332,4.22a3.068,3.068,0,0,1-3.1,1.7s.261,3.984-1.036,5.516a4.353,4.353,0,0,1-2.477,1.674,7.066,7.066,0,0,1-4.915,4.279c-3.819.979-5.823,1.05-6.861-.565a17.66,17.66,0,0,1-1.686-3.643s-8.191-4.3-8.368-6.483.2-2.358.2-2.358a4.1,4.1,0,0,1,.164-3.148c.826-1.332,4.08-.165,4.08-.165l10.455,2.452s-8.37-3.925-9.359-5.21.07-2.865,3.431-2.464,13.509,2.3,13.509,2.3a3.13,3.13,0,0,0-1.18-1.3c-.672-.283-2.769-1.5-2.769-1.5Z" fill="#b2655f"/>
            <path id="Path_329" data-name="Path 329" d="M440.439,369.58c0,.094-4.267-.99-9.43-2.417s-9.431-2.675-9.372-2.77,4.267.99,9.43,2.417,9.4,2.676,9.372,2.77" fill="#8e4842"/>
            <path id="Path_330" data-name="Path 330" d="M435.452,375.274a12.061,12.061,0,0,1-3.053-.778,21.424,21.424,0,0,1-2.087-.8,3.938,3.938,0,0,1-.613-.33.822.822,0,0,1-.141-.129v-.083c0,.024,1.3.448,2.935.99a16.225,16.225,0,0,1,2.959,1.132" fill="#8e4842"/>
            <path id="Path_331" data-name="Path 331" d="M444.411,364.983c0,.094-2.063-.318-4.586-.731a45.95,45.95,0,0,1-4.573-.79,21.572,21.572,0,0,1,4.632.436,20.776,20.776,0,0,1,4.527,1.085" fill="#8e4842"/>
            <path id="Path_332" data-name="Path 332" d="M446.969,359.6c-.071.094-.9-.495-2.051-.908s-2.157-.518-2.157-.624a3.866,3.866,0,0,1,2.287.282,3.936,3.936,0,0,1,1.921,1.25" fill="#8e4842"/>
            <path id="Path_333" data-name="Path 333" d="M456.105,341.583h-.377l-1.1-.13c-.943-.129-2.357-.306-4-.495-3.383-.389-8.075-.8-13.273-.919a7.345,7.345,0,0,0-3.631.424,15.344,15.344,0,0,0-1.485.979l-1.415,1-4.892,3.453-3.312,2.3-.92.613a.964.964,0,0,1-.33.189,3.309,3.309,0,0,1,.295-.248l.872-.66,3.254-2.358,4.845-3.536,1.4-1.014a17.166,17.166,0,0,1,1.521-1.014,4.279,4.279,0,0,1,1.874-.471h1.934a127.824,127.824,0,0,1,13.285,1.025c1.7.224,3.065.448,4,.613l1.085.2a1.159,1.159,0,0,1,.365.047" fill="#263238"/>
            <path id="Path_334" data-name="Path 334" d="M443.315,343.4a.989.989,0,0,0-.978-.377h-.165a1.387,1.387,0,0,0-.8.448.847.847,0,0,0,0,1.072.98.98,0,0,0,.578.272,1.441,1.441,0,0,0,1.178-.295.99.99,0,0,0,.189-1.12" fill="#fff"/>
            <path id="Path_335" data-name="Path 335" d="M396.9,230.044l-2.263-1.179a4.809,4.809,0,0,0-3.454-.8c-1.12.318-1.9,1.391-3.053,1.508-1.344.154-2.452-1.06-3.8-.99s-2.275,1.179-3.537,1.179c-.943,0-1.945-.672-2.758-.212-.165.094-.306.224-.46.33a3.348,3.348,0,0,1-3.135-.177,4.331,4.331,0,0,0-3.136-.542,4.987,4.987,0,0,0-1.627,1.308,2.248,2.248,0,0,1-1.9.778c-.389-.082-.707-.33-1.1-.424-1.179-.306-2.228.99-3.466,1.32s-2.475-.259-3.536.26a1.8,1.8,0,0,0-.872,2.216,2.735,2.735,0,0,0,2.051,1.544,5.685,5.685,0,0,0,2.77-.2,6.7,6.7,0,0,1,2.228-.507c1.756.059,3.136,1.874,4.857,1.5a6.059,6.059,0,0,0,2.121-1.344,5.9,5.9,0,0,1,3.419-1.108,6.6,6.6,0,0,0,2.417-.13c.931-.377,1.461-1.355,2.428-1.615s2.075.366,3.147.26c.7-.059,1.344-.448,2.051-.484,1-.059,1.91.59,2.912.507s1.886-.931,2.912-.849a6.988,6.988,0,0,1,1.179.319,1.27,1.27,0,0,0,1.178-.177c.224-.212.295-.554.566-.707a1.179,1.179,0,0,1,.684-.071l3.324.342Z" fill="#263238"/>
            <path id="Path_336" data-name="Path 336" d="M400.477,229.927c-1.12-.825-2.617-1.686-3.878-.99-.46.247-.8.66-1.262.884-1.061.495-2.357-.153-3.465.153-.955.271-1.592,1.179-2.476,1.592-1.426.707-3.536.294-4.409,1.544-.483.684-.565,1.78-1.4,1.968a2.066,2.066,0,0,1-.9-.106,7.489,7.489,0,0,0-3.112-.094,3.314,3.314,0,0,0-1.615.684c-.849.766-.873,2.074-1.686,2.876-1.179,1.179-3.383.625-4.939,1.391a9.65,9.65,0,0,0-1.9,1.568,21.525,21.525,0,0,1-4.008,2.44,8.7,8.7,0,0,0-3.536,2.982,3.159,3.159,0,0,0,.448,4.044,1.6,1.6,0,0,0,1.992.094c.177-.165.294-.4.459-.589a3.9,3.9,0,0,1,1.38-.7c.483-.189.99-.554.99-1.049,0-.307-.177-.672.071-.884a.741.741,0,0,1,.365-.118c1.25-.13,2.782-.071,3.454-1.085a7.255,7.255,0,0,0,.507-1.5,2.809,2.809,0,0,1,2.027-1.674c.767-.176,1.627-.059,2.24-.53s.719-1.544,1.344-2.134c1.049-.99,3.124-.271,4.067-1.344.236-.271.365-.612.66-.813.849-.554,1.874.59,2.876.4s1.179-1.179,1.78-1.745a10.307,10.307,0,0,1,2.912-1.344c1.238-.6,2.134-1.768,3.442-2.157,1.179-.342,2.523-.106,3.36-.907.318-.307.542-.743.978-.885a1.923,1.923,0,0,1,.778,0,5.894,5.894,0,0,0,3.737-.754Z" fill="#263238"/>
            <path id="Path_337" data-name="Path 337" d="M398.567,232.921a9.428,9.428,0,0,0-7.992,2.358,6.294,6.294,0,0,1-1.509,1.178,8.436,8.436,0,0,1-2.947.33,5.8,5.8,0,0,0-4.869,3.938c-.448,1.355-.613,3.135-1.921,3.607a3.979,3.979,0,0,0-.719.259c-.873.542-.271,1.933-.283,3.006,0,1.768-1.981,2.983-2.051,4.715a4.569,4.569,0,0,0,.46,1.875q1.025,2.534,2.251,4.951c.365.719.849,1.52,1.627,1.627,1.179.153,1.815-1.179,2.145-2.358a3.433,3.433,0,0,0,.071-2.464c-.33-.625-1-.99-1.3-1.638-.459-1.026.283-2.169.814-3.148a9.425,9.425,0,0,0,.907-6.495c1.179-.224,1.8-1.9,3.03-2.134a7.362,7.362,0,0,0,1.025-.129c.814-.33.908-1.568,1.627-2.075s2.358-.118,2.759-1.12c.117-.318.059-.695.259-.955a1.006,1.006,0,0,1,.648-.342l2.971-.742a3.429,3.429,0,0,0,1.579-.7c.767-.731.885-2.122,1.851-2.5Z" fill="#263238"/>
            <path id="Path_338" data-name="Path 338" d="M401.715,227.015c-.118-1.745-.448-3.843-1.992-4.55-.908-.425-2.016-.2-2.912-.66-1.721-.861-1.862-3.643-3.536-4.527s-3.914.483-5.258-.813c-.7-.672-.79-1.792-1.355-2.582a3.942,3.942,0,0,0-3.03-1.3,9.507,9.507,0,0,1-3.324-.448c-1.768-.778-2.9-2.97-4.8-3.123-1.615-.118-2.876,1.3-3.89,2.593a2.488,2.488,0,0,0-.578,1.084,1.9,1.9,0,0,0,1.05,1.78c1.284.755,2.935.637,4.125,1.521a11.84,11.84,0,0,0,1.285,1.037c.684.366,1.545.283,2.2.7,1.285.79,1.261,2.947,2.546,3.749s2.782-.142,4.173.176c1.886.448,2.923,3.077,4.857,3.148a18.613,18.613,0,0,0,2.5-.554,2.77,2.77,0,0,1,2.676,1.579c.306.66.353,1.438.719,2.075a3.005,3.005,0,0,0,2.228,1.4,8.487,8.487,0,0,0,2.664-.153Z" fill="#263238"/>
            <path id="Path_339" data-name="Path 339" d="M400.253,232.449c-1.179-2.228-2.629-4.609-5.045-5.646a31.447,31.447,0,0,1-3.749-1.309c-.967-.566-1.65-1.473-2.558-2.122-2.11-1.5-5.022-1.4-7.615-.99s-5.269,1.061-7.816.436c-2.286-.566-4.279-2.11-6.624-2.251a11.391,11.391,0,0,0-3.761.648l-4.267,1.179a1.978,1.978,0,0,0-1.179.707c-.46.766.436,1.65,1.285,2a7.826,7.826,0,0,0,4.409.472,10.825,10.825,0,0,1,3.536-.531,22.93,22.93,0,0,1,2.358.755,8.843,8.843,0,0,0,3.053,0l4.715-.5a6.607,6.607,0,0,1,3.6.307c.849.413,1.521,1.179,2.464,1.3s2.051-.661,3.1-.507c1.25.2,1.875,1.591,3.018,2.122,1.344.624,3.112-.106,4.409.613.884.483,1.261,1.473,1.827,2.286a5.7,5.7,0,0,0,1.8,1.674,12.205,12.205,0,0,0,3.029,1.108Z" fill="#263238"/>
            <path id="Path_340" data-name="Path 340" d="M402.752,222.547c-.566-.778-1.426-1.568-1.179-2.511.118-.46.495-.837.578-1.308.141-.849-.719-1.509-1.038-2.358s0-2.122-.542-2.994-1.792-1.049-2.829-1.309A3.532,3.532,0,0,1,395.1,210a12.077,12.077,0,0,1-.142-2.357,4.455,4.455,0,0,0-4.279-3.654,4.662,4.662,0,0,1-1.768-.2c-1-.471-1.179-1.756-1.8-2.711a3.749,3.749,0,0,0-3.854-1.8c-.708.142-1.486.884-1.073,1.474.165.236.471.33.7.518.8.684.224,2.063.7,3s1.98,1.178,2.44,2.169c.354.766-.059,1.721.271,2.5.413.955,1.65,1.179,2.688,1.179s2.275.282,2.664,1.178a5.715,5.715,0,0,1,.2,1.344,2.628,2.628,0,0,0,1.356,1.874c1,.507,2.358.413,3.006,1.368s-.295,2.593.306,3.713c.437.814,1.486,1.026,2.275,1.521a.9.9,0,0,1,.413.471,1,1,0,0,1-.141.625c-.625,1.273-1.415,2.735-.814,4.008a5.262,5.262,0,0,0,1.085,1.32,11.169,11.169,0,0,1,2.735,4.716l1.1-4.8a4.916,4.916,0,0,0-.4-4.9" fill="#263238"/>
            <path id="Path_341" data-name="Path 341" d="M408.835,206.35a3.217,3.217,0,0,0-1.391-3.713,2.535,2.535,0,0,0-3.42,1.074,2.71,2.71,0,0,0-.116.258c-.472,1.568.848,3.407,0,4.821a4.961,4.961,0,0,0-.719,1.12c-.295,1.037,1,1.91,1.013,2.994s-1.5,1.851-1.8,3.006.978,2.723.5,4.008a4.718,4.718,0,0,1-.625.967c-1.379,2.027-.672,4.715.083,7.073l3.123-.46c-.577-2.169,2.476-4.338,1.439-6.319-.5-.943-1.851-1.626-1.545-2.652a2.01,2.01,0,0,1,.472-.707l2.912-3.183a2.942,2.942,0,0,0,.931-1.615c.129-1.379-1.592-2.275-1.816-3.654-.094-1.085.649-2.04.967-3.018" fill="#263238"/>
            <path id="Path_342" data-name="Path 342" d="M409.907,224.033c-.3-1.026-1.627-1.332-2.676-1.179-2.9.448-5.022,2.876-6.872,5.14a61.228,61.228,0,0,0-5.729,7.792,5.147,5.147,0,0,0-.8,1.98,2,2,0,0,0,.731,1.91,1.261,1.261,0,0,0,1.756-.311,1.136,1.136,0,0,0,.071-.114l.861-.212a42.031,42.031,0,0,1,11.01-12.283c.907-.707,1.957-1.662,1.65-2.723" fill="#286fd1"/>
            <path id="Path_343" data-name="Path 343" d="M393.958,268.379a101.029,101.029,0,0,1-1.073-17.281,35.1,35.1,0,0,1,4.621-16.5c.46-.754,4.067-5.658,4.9-5.41.6.176-1.957,4.915-1.745,5.5,1.957,5.646,1.568,11.906,0,17.682a77.81,77.81,0,0,1-6.672,16.043" fill="#263238"/>
            <path id="Path_344" data-name="Path 344" d="M419.644,306.031c.825-4,1.485-7.144,1.521-7.144s14.016,1.3,17.576-12.153c1.721-6.495,4.161-20.158,6.236-32.547a25.934,25.934,0,0,0-19.239-29.47l-1.308-.33c-14.24-2.7-24.5,7.874-26.806,22.185l-9.678,49.793,22.185,23.317Z" fill="#b2655f"/>
            <path id="Path_345" data-name="Path 345" d="M421.165,298.887a33.589,33.589,0,0,1-16.256-9.607s1.816,10.892,15.572,13.061Z" fill="#8e4842"/>
            <path id="Path_346" data-name="Path 346" d="M438.093,264.89a1.981,1.981,0,0,1-2.358,1.474,1.9,1.9,0,0,1-1.553-2.189l.009-.051a1.993,1.993,0,0,1,2.358-1.474,1.887,1.887,0,0,1,1.558,2.165c0,.025-.009.05-.014.075" fill="#263238"/>
            <path id="Path_347" data-name="Path 347" d="M440.686,259.055c-.3.189-1.485-1.25-3.536-1.768s-3.855.141-4.02-.177c-.071-.141.283-.53,1.061-.849a5.566,5.566,0,0,1,3.3-.165,5.235,5.235,0,0,1,2.759,1.721c.53.649.589,1.156.436,1.238" fill="#263238"/>
            <path id="Path_348" data-name="Path 348" d="M419.291,261.271a1.991,1.991,0,0,1-2.358,1.485,1.9,1.9,0,0,1-1.553-2.188l.009-.051a1.981,1.981,0,0,1,2.358-1.474,1.886,1.886,0,0,1,1.555,2.167c0,.02-.007.041-.011.061" fill="#263238"/>
            <path id="Path_349" data-name="Path 349" d="M420.175,254.788c-.306.189-1.5-1.25-3.536-1.768s-3.855.141-4.02-.177c-.083-.13.271-.53,1.061-.837a5.43,5.43,0,0,1,3.289-.177,5.14,5.14,0,0,1,2.758,1.721c.495.649.589,1.132.448,1.238" fill="#263238"/>
            <path id="Path_350" data-name="Path 350" d="M423.605,272.588a14.118,14.118,0,0,1,3.536.236c.543.082,1.073.106,1.25-.236a2.741,2.741,0,0,0,0-1.662c-.177-1.4-.354-2.876-.554-4.421-.731-6.283-1.108-11.4-.861-11.422s1.05,5.045,1.78,11.328c.177,1.544.33,3.018.484,4.432a3.161,3.161,0,0,1-.248,2.146,1.4,1.4,0,0,1-1.061.554,3.11,3.11,0,0,1-.931-.106,14,14,0,0,1-3.395-.849" fill="#263238"/>
            <path id="Path_351" data-name="Path 351" d="M417.2,272.493c.342.059-.224,2.358,1.308,4.4s3.985,2.428,3.914,2.747-.636.306-1.662.082a5.821,5.821,0,0,1-3.3-2.181,5.01,5.01,0,0,1-.954-3.642c.094-.967.483-1.462.7-1.4" fill="#263238"/>
            <path id="Path_352" data-name="Path 352" d="M422.179,246.347c-.354.519-2.358-.271-4.857-.589s-4.644-.154-4.833-.743c-.082-.271.389-.719,1.32-1.061a8.419,8.419,0,0,1,7.38,1.014c.8.577,1.143,1.131.99,1.379" fill="#263238"/>
            <path id="Path_353" data-name="Path 353" d="M441.57,251.947c-.483.377-1.792-.46-3.536-.919s-3.254-.484-3.466-1.061c-.083-.272.259-.684,1.014-.979a5.27,5.27,0,0,1,5.611,1.6c.518.637.589,1.167.377,1.356" fill="#263238"/>
            <path id="Path_354" data-name="Path 354" d="M396.221,256.9c-.212-.153-8.582-5.069-10.609,4.22s7.733,9.431,7.8,9.148,2.806-13.368,2.806-13.368" fill="#b2655f"/>
            <path id="Path_355" data-name="Path 355" d="M391.341,266.128a2.541,2.541,0,0,1-.483.141,1.626,1.626,0,0,1-1.179-.235c-.908-.578-1.391-2.358-1.073-4a5.328,5.328,0,0,1,.955-2.216,1.9,1.9,0,0,1,1.485-.978.837.837,0,0,1,.861.648.941.941,0,0,1,0,.484c0,.023.236-.107.247-.507a1.056,1.056,0,0,0-.235-.66,1.244,1.244,0,0,0-.849-.437,2.359,2.359,0,0,0-2,1.073,5.733,5.733,0,0,0-1.179,2.464c-.342,1.886.236,3.855,1.5,4.538a1.8,1.8,0,0,0,1.533.071c.353-.165.448-.365.424-.389" fill="#8e4842"/>
            <path id="Path_356" data-name="Path 356" d="M442.171,237.495c1.686-.519-1.827-6.342-5.175-8.794-5.069-3.7-13.3-7.073-18.767-6.66-6.577.46-12.389,2.475-16.68,7.485a37.436,37.436,0,0,0-8.016,17.847,11.37,11.37,0,0,0,.13,5.965c.872,2.358,3.1,4.15,2.358,6.967a3.956,3.956,0,0,0,.377,3.041c1.32,2.169,3.76.9,5.08-.613,2.806-3.218,3.938-7.521,4.987-11.67a27.441,27.441,0,0,0,1.261-8.971c-.129-1.65-.554-3.277-.6-4.927a5.752,5.752,0,0,1,1.639-4.515,7.125,7.125,0,0,1,.907-.6,9.9,9.9,0,0,1,10.02.177c4.857,2.947,13.238,7.579,15.949,6.295,3.9-1.863,5.057-3.36,5.057-3.36Z" fill="#263238"/>
            <path id="Path_357" data-name="Path 357" d="M343.069,396.068a3.718,3.718,0,0,1,.754-.33l2.205-.861,8.322-3.112,28.81-10.609-.165.4c-2.357-5.2-5-10.857-7.709-16.716l-3.973-8.664.319.165-28.858,4.432a58.417,58.417,0,0,0-14.912,6.555c-1.65,1.013-2.888,1.886-3.736,2.475l-.944.684a1.17,1.17,0,0,1-.341.212l.294-.271.908-.731c.813-.637,2.039-1.544,3.678-2.593a56.451,56.451,0,0,1,14.924-6.779l28.845-4.5h.224l.106.2c1.285,2.817,2.629,5.717,3.985,8.664,2.687,5.894,5.292,11.517,7.674,16.727l.141.283-.306.118L354.421,392.19l-8.37,2.959-2.239.766Z" fill="#263238"/>
            <path id="Path_358" data-name="Path 358" d="M360.339,343.092a20.333,20.333,0,0,1-2.359,2.9c-1.532,1.733-3.677,4.09-6.118,6.648s-4.715,4.81-6.424,6.354a19.082,19.082,0,0,1-2.146,1.733c-.294.165-.495.33-.754.283a.177.177,0,0,1,0-.236v-.059s0,.153.071.177a1.664,1.664,0,0,0,.566-.354c.483-.4,1.178-1.049,1.98-1.85,1.638-1.627,3.855-3.926,6.283-6.472l6.248-6.519a22.823,22.823,0,0,1,2.653-2.6" fill="#263238"/>
            <path id="Path_359" data-name="Path 359" d="M365.95,331.446c-.13,0,.248-1.851.248-4.833a31.085,31.085,0,0,0-.448-5.187,32.119,32.119,0,0,0-4.551-11.847,32.473,32.473,0,0,0-3.159-4.161c-2-2.2-3.536-3.313-3.418-3.407a5.4,5.4,0,0,1,1.084.731,11.735,11.735,0,0,1,1.179.978,19.729,19.729,0,0,1,1.474,1.4,29.157,29.157,0,0,1,3.312,4.15,32.7,32.7,0,0,1,2.971,5.776,33.677,33.677,0,0,1,1.673,6.283,28.75,28.75,0,0,1,.319,5.293,19.371,19.371,0,0,1-.154,2.027,10.543,10.543,0,0,1-.223,1.521,5.463,5.463,0,0,1-.307,1.273" fill="#263238"/>
            <path id="Path_360" data-name="Path 360" d="M395.986,419.349a37.007,37.007,0,0,1,3.866,0,35.173,35.173,0,0,0,17.588-5.187c2.028-1.179,3.183-2.169,3.254-2.086s-.236.294-.743.742a23.663,23.663,0,0,1-2.275,1.71,31.825,31.825,0,0,1-8.511,3.984,31.448,31.448,0,0,1-9.312,1.273,22.294,22.294,0,0,1-2.841-.2,3.761,3.761,0,0,1-1.026-.236" fill="#263238"/>
            <path id="Path_361" data-name="Path 361" d="M413.526,393.321a5.1,5.1,0,0,1-.79,1c-.53.625-1.332,1.5-2.357,2.57-2.016,2.133-4.9,5-8.252,7.98s-6.5,5.553-8.841,7.321c-1.179.884-2.134,1.591-2.818,2.051a4.718,4.718,0,0,1-1.084.672,5.279,5.279,0,0,1,.943-.861l2.688-2.2c2.263-1.851,5.375-4.444,8.711-7.427s6.248-5.788,8.346-7.839l2.476-2.428a4.835,4.835,0,0,1,.978-.837" fill="#263238"/>
            <path id="Path_362" data-name="Path 362" d="M425.008,169.937l2.263,1.179-1.285,2.122-2.357-1.391.071,2.546h-2.523l.059-2.546-2.358,1.391-1.261-2.122,2.251-1.179-2.251-1.238,1.261-2.133,2.358,1.426-.059-2.582H423.7l-.071,2.582,2.357-1.426,1.285,2.133Z" fill="#e0e0e0"/>
            <path id="Path_363" data-name="Path 363" d="M435.5,169.937l2.263,1.179-1.285,2.122-2.357-1.391.071,2.546h-2.523v-2.546l-2.358,1.391-1.261-2.122,2.251-1.179-2.251-1.238,1.261-2.133,2.358,1.426V165.41h2.523l-.071,2.582,2.357-1.426,1.285,2.133Z" fill="#e0e0e0"/>
            <path id="Path_364" data-name="Path 364" d="M445.991,169.937l2.263,1.179-1.285,2.122-2.357-1.391.059,2.546h-2.523l.059-2.546-2.358,1.391-1.261-2.122,2.252-1.179-2.252-1.238,1.261-2.133,2.358,1.426-.059-2.582h2.523l-.059,2.582,2.357-1.426,1.285,2.133Z" fill="#e0e0e0"/>
            <path id="Path_365" data-name="Path 365" d="M456.482,169.937l2.263,1.179-1.285,2.122-2.357-1.391.059,2.546h-2.523l.059-2.546-2.358,1.391-1.261-2.122,2.263-1.179-2.263-1.238,1.261-2.133,2.358,1.426-.059-2.582h2.523l-.059,2.582,2.357-1.426,1.285,2.133Z" fill="#e0e0e0"/>
            <path id="Path_366" data-name="Path 366" d="M466.974,169.937l2.263,1.179-1.285,2.122-2.357-1.391.059,2.546h-2.476l.059-2.546-2.357,1.391-1.262-2.122,2.264-1.179-2.24-1.238,1.261-2.133,2.358,1.426-.059-2.582h2.522l-.058,2.582,2.357-1.426,1.285,2.133Z" fill="#e0e0e0"/>
            <path id="Path_367" data-name="Path 367" d="M477.465,169.937l2.263,1.179-1.226,2.228-2.357-1.391V174.5h-2.523l.059-2.546-2.252,1.391-1.261-2.122,2.263-1.179-2.263-1.238,1.261-2.133,2.358,1.426-.059-2.582h2.417V168.1l2.357-1.426,1.285,2.133Z" fill="#e0e0e0"/>
          </g>
        </g>
      </g>
    </g>
  </g>
</svg>
